<?xml version="1.0" encoding="us-ascii" standalone="no"?><svg xmlns="http://www.w3.org/2000/svg" xmlns:xlink="http://www.w3.org/1999/xlink" contentStyleType="text/css" height="819px" preserveAspectRatio="none" style="width:2337px;height:819px;background:#FFFFFF;" version="1.1" viewBox="0 0 2337 819" width="2337px" zoomAndPan="magnify"><defs/><g><!--class Portfolio--><g id="elem_Portfolio"><rect codeLine="3" fill="#F1F1F1" height="96.8906" id="Portfolio" rx="2.5" ry="2.5" style="stroke:#181818;stroke-width:0.5;" width="237" x="1467" y="7"/><ellipse cx="1553.25" cy="23" fill="#ADD1B2" rx="11" ry="11" style="stroke:#181818;stroke-width:1.0;"/><path d="M1556.2188,28.6406 Q1555.6406,28.9375 1555,29.0781 Q1554.3594,29.2344 1553.6563,29.2344 Q1551.1563,29.2344 1549.8281,27.5938 Q1548.5156,25.9375 1548.5156,22.8125 Q1548.5156,19.6875 1549.8281,18.0313 Q1551.1563,16.375 1553.6563,16.375 Q1554.3594,16.375 1555,16.5313 Q1555.6563,16.6875 1556.2188,16.9844 L1556.2188,19.7031 Q1555.5938,19.125 1555,18.8594 Q1554.4063,18.5781 1553.7813,18.5781 Q1552.4375,18.5781 1551.75,19.6563 Q1551.0625,20.7188 1551.0625,22.8125 Q1551.0625,24.9063 1551.75,25.9844 Q1552.4375,27.0469 1553.7813,27.0469 Q1554.4063,27.0469 1555,26.7813 Q1555.5938,26.5 1556.2188,25.9219 L1556.2188,28.6406 Z " fill="#000000"/><text fill="#000000" font-family="sans-serif" font-size="14" lengthAdjust="spacing" textLength="56" x="1573.75" y="27.8467">Portfolio</text><line style="stroke:#181818;stroke-width:0.5;" x1="1468" x2="1703" y1="39" y2="39"/><ellipse cx="1478" cy="52.6484" fill="none" rx="3" ry="3" style="stroke:#038048;stroke-width:1.0;"/><text fill="#000000" font-family="sans-serif" font-size="14" lengthAdjust="spacing" textLength="163" x="1487" y="55.9951">MonteCarlo monteCarlo</text><ellipse cx="1478" cy="68.9453" fill="none" rx="3" ry="3" style="stroke:#038048;stroke-width:1.0;"/><text fill="#000000" font-family="sans-serif" font-size="14" lengthAdjust="spacing" textLength="211" x="1487" y="72.292">ITimeGrid rebalancingTimeGrid</text><ellipse cx="1478" cy="85.2422" fill="none" rx="3" ry="3" style="stroke:#038048;stroke-width:1.0;"/><text fill="#000000" font-family="sans-serif" font-size="14" lengthAdjust="spacing" textLength="189" x="1487" y="88.5889">vector&lt;Position&gt; positions</text><line style="stroke:#181818;stroke-width:0.5;" x1="1468" x2="1703" y1="95.8906" y2="95.8906"/></g><!--class MonteCarlo--><g id="elem_MonteCarlo"><rect codeLine="13" fill="#F1F1F1" height="129.4844" id="MonteCarlo" rx="2.5" ry="2.5" style="stroke:#181818;stroke-width:0.5;" width="272" x="1187.5" y="172.5"/><ellipse cx="1279.75" cy="188.5" fill="#ADD1B2" rx="11" ry="11" style="stroke:#181818;stroke-width:1.0;"/><path d="M1282.7188,194.1406 Q1282.1406,194.4375 1281.5,194.5781 Q1280.8594,194.7344 1280.1563,194.7344 Q1277.6563,194.7344 1276.3281,193.0938 Q1275.0156,191.4375 1275.0156,188.3125 Q1275.0156,185.1875 1276.3281,183.5313 Q1277.6563,181.875 1280.1563,181.875 Q1280.8594,181.875 1281.5,182.0313 Q1282.1563,182.1875 1282.7188,182.4844 L1282.7188,185.2031 Q1282.0938,184.625 1281.5,184.3594 Q1280.9063,184.0781 1280.2813,184.0781 Q1278.9375,184.0781 1278.25,185.1563 Q1277.5625,186.2188 1277.5625,188.3125 Q1277.5625,190.4063 1278.25,191.4844 Q1278.9375,192.5469 1280.2813,192.5469 Q1280.9063,192.5469 1281.5,192.2813 Q1282.0938,192 1282.7188,191.4219 L1282.7188,194.1406 Z " fill="#000000"/><text fill="#000000" font-family="sans-serif" font-size="14" lengthAdjust="spacing" textLength="79" x="1300.25" y="193.3467">MonteCarlo</text><line style="stroke:#181818;stroke-width:0.5;" x1="1188.5" x2="1458.5" y1="204.5" y2="204.5"/><ellipse cx="1198.5" cy="218.1484" fill="none" rx="3" ry="3" style="stroke:#038048;stroke-width:1.0;"/><text fill="#000000" font-family="sans-serif" font-size="14" lengthAdjust="spacing" textLength="101" x="1207.5" y="221.4951">Option *option</text><ellipse cx="1198.5" cy="234.4453" fill="none" rx="3" ry="3" style="stroke:#038048;stroke-width:1.0;"/><text fill="#000000" font-family="sans-serif" font-size="14" lengthAdjust="spacing" textLength="132" x="1207.5" y="237.792">GlobalModel model</text><ellipse cx="1198.5" cy="250.7422" fill="none" rx="3" ry="3" style="stroke:#038048;stroke-width:1.0;"/><text fill="#000000" font-family="sans-serif" font-size="14" lengthAdjust="spacing" textLength="91" x="1207.5" y="254.0889">int SampleNb</text><ellipse cx="1198.5" cy="267.0391" fill="none" rx="3" ry="3" style="stroke:#038048;stroke-width:1.0;"/><text fill="#000000" font-family="sans-serif" font-size="14" lengthAdjust="spacing" textLength="246" x="1207.5" y="270.3857">double RelativeFiniteDifferenceStep</text><line style="stroke:#181818;stroke-width:0.5;" x1="1188.5" x2="1458.5" y1="277.6875" y2="277.6875"/><ellipse cx="1198.5" cy="291.3359" fill="#84BE84" rx="3" ry="3" style="stroke:#038048;stroke-width:1.0;"/><text fill="#000000" font-family="sans-serif" font-size="14" lengthAdjust="spacing" textLength="107" x="1207.5" y="294.6826">priceAndDelta()</text></g><!--class Position--><g id="elem_Position"><rect codeLine="23" fill="#F1F1F1" height="145.7813" id="Position" rx="2.5" ry="2.5" style="stroke:#181818;stroke-width:0.5;" width="181" x="1495" y="164"/><ellipse cx="1553.75" cy="180" fill="#ADD1B2" rx="11" ry="11" style="stroke:#181818;stroke-width:1.0;"/><path d="M1556.7188,185.6406 Q1556.1406,185.9375 1555.5,186.0781 Q1554.8594,186.2344 1554.1563,186.2344 Q1551.6563,186.2344 1550.3281,184.5938 Q1549.0156,182.9375 1549.0156,179.8125 Q1549.0156,176.6875 1550.3281,175.0313 Q1551.6563,173.375 1554.1563,173.375 Q1554.8594,173.375 1555.5,173.5313 Q1556.1563,173.6875 1556.7188,173.9844 L1556.7188,176.7031 Q1556.0938,176.125 1555.5,175.8594 Q1554.9063,175.5781 1554.2813,175.5781 Q1552.9375,175.5781 1552.25,176.6563 Q1551.5625,177.7188 1551.5625,179.8125 Q1551.5625,181.9063 1552.25,182.9844 Q1552.9375,184.0469 1554.2813,184.0469 Q1554.9063,184.0469 1555.5,183.7813 Q1556.0938,183.5 1556.7188,182.9219 L1556.7188,185.6406 Z " fill="#000000"/><text fill="#000000" font-family="sans-serif" font-size="14" lengthAdjust="spacing" textLength="55" x="1574.25" y="184.8467">Position</text><line style="stroke:#181818;stroke-width:0.5;" x1="1496" x2="1675" y1="196" y2="196"/><ellipse cx="1506" cy="209.6484" fill="none" rx="3" ry="3" style="stroke:#038048;stroke-width:1.0;"/><text fill="#000000" font-family="sans-serif" font-size="14" lengthAdjust="spacing" textLength="52" x="1515" y="212.9951">int date</text><ellipse cx="1506" cy="225.9453" fill="none" rx="3" ry="3" style="stroke:#038048;stroke-width:1.0;"/><text fill="#000000" font-family="sans-serif" font-size="14" lengthAdjust="spacing" textLength="105" x="1515" y="229.292">PnlVect *deltas</text><ellipse cx="1506" cy="242.2422" fill="none" rx="3" ry="3" style="stroke:#038048;stroke-width:1.0;"/><text fill="#000000" font-family="sans-serif" font-size="14" lengthAdjust="spacing" textLength="155" x="1515" y="245.5889">PnlVect *deltasStdDev</text><ellipse cx="1506" cy="258.5391" fill="none" rx="3" ry="3" style="stroke:#038048;stroke-width:1.0;"/><text fill="#000000" font-family="sans-serif" font-size="14" lengthAdjust="spacing" textLength="86" x="1515" y="261.8857">double price</text><ellipse cx="1506" cy="274.8359" fill="none" rx="3" ry="3" style="stroke:#038048;stroke-width:1.0;"/><text fill="#000000" font-family="sans-serif" font-size="14" lengthAdjust="spacing" textLength="136" x="1515" y="278.1826">double priceStdDev</text><ellipse cx="1506" cy="291.1328" fill="none" rx="3" ry="3" style="stroke:#038048;stroke-width:1.0;"/><text fill="#000000" font-family="sans-serif" font-size="14" lengthAdjust="spacing" textLength="146" x="1515" y="294.4795">double portfolioValue</text><line style="stroke:#181818;stroke-width:0.5;" x1="1496" x2="1675" y1="301.7813" y2="301.7813"/></g><!--class Option--><g id="elem_Option"><rect codeLine="33" fill="#F1F1F1" height="129.4844" id="Option" rx="2.5" ry="2.5" style="stroke:#181818;stroke-width:0.5;" width="365" x="528" y="370"/><ellipse cx="683.25" cy="386" fill="#ADD1B2" rx="11" ry="11" style="stroke:#181818;stroke-width:1.0;"/><path d="M686.2188,391.6406 Q685.6406,391.9375 685,392.0781 Q684.3594,392.2344 683.6563,392.2344 Q681.1563,392.2344 679.8281,390.5938 Q678.5156,388.9375 678.5156,385.8125 Q678.5156,382.6875 679.8281,381.0313 Q681.1563,379.375 683.6563,379.375 Q684.3594,379.375 685,379.5313 Q685.6563,379.6875 686.2188,379.9844 L686.2188,382.7031 Q685.5938,382.125 685,381.8594 Q684.4063,381.5781 683.7813,381.5781 Q682.4375,381.5781 681.75,382.6563 Q681.0625,383.7188 681.0625,385.8125 Q681.0625,387.9063 681.75,388.9844 Q682.4375,390.0469 683.7813,390.0469 Q684.4063,390.0469 685,389.7813 Q685.5938,389.5 686.2188,388.9219 L686.2188,391.6406 Z " fill="#000000"/><text fill="#000000" font-family="sans-serif" font-size="14" lengthAdjust="spacing" textLength="46" x="703.75" y="390.8467">Option</text><line style="stroke:#181818;stroke-width:0.5;" x1="529" x2="892" y1="402" y2="402"/><ellipse cx="539" cy="415.6484" fill="none" rx="3" ry="3" style="stroke:#038048;stroke-width:1.0;"/><text fill="#000000" font-family="sans-serif" font-size="14" lengthAdjust="spacing" textLength="190" x="548" y="418.9951">int[] assetCurrencyMapping</text><ellipse cx="539" cy="431.9453" fill="none" rx="3" ry="3" style="stroke:#038048;stroke-width:1.0;"/><text fill="#000000" font-family="sans-serif" font-size="14" lengthAdjust="spacing" textLength="339" x="548" y="435.292">vector&lt;InterestRateModel&gt; foreignInterestRates</text><ellipse cx="539" cy="448.2422" fill="none" rx="3" ry="3" style="stroke:#038048;stroke-width:1.0;"/><text fill="#000000" font-family="sans-serif" font-size="14" lengthAdjust="spacing" textLength="280" x="548" y="451.5889">InterestRateModel domesticInterestRate</text><ellipse cx="539" cy="464.5391" fill="none" rx="3" ry="3" style="stroke:#038048;stroke-width:1.0;"/><text fill="#000000" font-family="sans-serif" font-size="14" lengthAdjust="spacing" textLength="205" x="548" y="467.8857">ITimeGrid monitoringTimeGrid</text><line style="stroke:#181818;stroke-width:0.5;" x1="529" x2="892" y1="475.1875" y2="475.1875"/><ellipse cx="539" cy="488.8359" fill="#84BE84" rx="3" ry="3" style="stroke:#038048;stroke-width:1.0;"/><text fill="#000000" font-family="sans-serif" font-size="14" lengthAdjust="spacing" textLength="147" x="548" y="492.1826">virtual payoff() : doubl</text></g><!--class CallQuantoOption--><g id="elem_CallQuantoOption"><rect codeLine="44" fill="#F1F1F1" height="80.5938" id="CallQuantoOption" rx="2.5" ry="2.5" style="stroke:#181818;stroke-width:0.5;" width="153" x="7" y="575"/><ellipse cx="22" cy="591" fill="#ADD1B2" rx="11" ry="11" style="stroke:#181818;stroke-width:1.0;"/><path d="M24.9688,596.6406 Q24.3906,596.9375 23.75,597.0781 Q23.1094,597.2344 22.4063,597.2344 Q19.9063,597.2344 18.5781,595.5938 Q17.2656,593.9375 17.2656,590.8125 Q17.2656,587.6875 18.5781,586.0313 Q19.9063,584.375 22.4063,584.375 Q23.1094,584.375 23.75,584.5313 Q24.4063,584.6875 24.9688,584.9844 L24.9688,587.7031 Q24.3438,587.125 23.75,586.8594 Q23.1563,586.5781 22.5313,586.5781 Q21.1875,586.5781 20.5,587.6563 Q19.8125,588.7188 19.8125,590.8125 Q19.8125,592.9063 20.5,593.9844 Q21.1875,595.0469 22.5313,595.0469 Q23.1563,595.0469 23.75,594.7813 Q24.3438,594.5 24.9688,593.9219 L24.9688,596.6406 Z " fill="#000000"/><text fill="#000000" font-family="sans-serif" font-size="14" lengthAdjust="spacing" textLength="121" x="36" y="595.8467">CallQuantoOption</text><line style="stroke:#181818;stroke-width:0.5;" x1="8" x2="159" y1="607" y2="607"/><ellipse cx="18" cy="620.6484" fill="none" rx="3" ry="3" style="stroke:#038048;stroke-width:1.0;"/><text fill="#000000" font-family="sans-serif" font-size="14" lengthAdjust="spacing" textLength="51" x="27" y="623.9951">strike K</text><line style="stroke:#181818;stroke-width:0.5;" x1="8" x2="159" y1="631.2969" y2="631.2969"/><ellipse cx="18" cy="644.9453" fill="#84BE84" rx="3" ry="3" style="stroke:#038048;stroke-width:1.0;"/><text fill="#000000" font-family="sans-serif" font-size="14" lengthAdjust="spacing" textLength="103" x="27" y="648.292">payoff() : doubl</text></g><!--class CallCurrencyOption--><g id="elem_CallCurrencyOption"><rect codeLine="50" fill="#F1F1F1" height="80.5938" id="CallCurrencyOption" rx="2.5" ry="2.5" style="stroke:#181818;stroke-width:0.5;" width="164" x="195.5" y="575"/><ellipse cx="210.5" cy="591" fill="#ADD1B2" rx="11" ry="11" style="stroke:#181818;stroke-width:1.0;"/><path d="M213.4688,596.6406 Q212.8906,596.9375 212.25,597.0781 Q211.6094,597.2344 210.9063,597.2344 Q208.4063,597.2344 207.0781,595.5938 Q205.7656,593.9375 205.7656,590.8125 Q205.7656,587.6875 207.0781,586.0313 Q208.4063,584.375 210.9063,584.375 Q211.6094,584.375 212.25,584.5313 Q212.9063,584.6875 213.4688,584.9844 L213.4688,587.7031 Q212.8438,587.125 212.25,586.8594 Q211.6563,586.5781 211.0313,586.5781 Q209.6875,586.5781 209,587.6563 Q208.3125,588.7188 208.3125,590.8125 Q208.3125,592.9063 209,593.9844 Q209.6875,595.0469 211.0313,595.0469 Q211.6563,595.0469 212.25,594.7813 Q212.8438,594.5 213.4688,593.9219 L213.4688,596.6406 Z " fill="#000000"/><text fill="#000000" font-family="sans-serif" font-size="14" lengthAdjust="spacing" textLength="132" x="224.5" y="595.8467">CallCurrencyOption</text><line style="stroke:#181818;stroke-width:0.5;" x1="196.5" x2="358.5" y1="607" y2="607"/><ellipse cx="206.5" cy="620.6484" fill="none" rx="3" ry="3" style="stroke:#038048;stroke-width:1.0;"/><text fill="#000000" font-family="sans-serif" font-size="14" lengthAdjust="spacing" textLength="51" x="215.5" y="623.9951">strike K</text><line style="stroke:#181818;stroke-width:0.5;" x1="196.5" x2="358.5" y1="631.2969" y2="631.2969"/><ellipse cx="206.5" cy="644.9453" fill="#84BE84" rx="3" ry="3" style="stroke:#038048;stroke-width:1.0;"/><text fill="#000000" font-family="sans-serif" font-size="14" lengthAdjust="spacing" textLength="103" x="215.5" y="648.292">payoff() : doubl</text></g><!--class QuantoExchangeOption--><g id="elem_QuantoExchangeOption"><rect codeLine="56" fill="#F1F1F1" height="80.5938" id="QuantoExchangeOption" rx="2.5" ry="2.5" style="stroke:#181818;stroke-width:0.5;" width="197" x="395" y="575"/><ellipse cx="410" cy="591" fill="#ADD1B2" rx="11" ry="11" style="stroke:#181818;stroke-width:1.0;"/><path d="M412.9688,596.6406 Q412.3906,596.9375 411.75,597.0781 Q411.1094,597.2344 410.4063,597.2344 Q407.9063,597.2344 406.5781,595.5938 Q405.2656,593.9375 405.2656,590.8125 Q405.2656,587.6875 406.5781,586.0313 Q407.9063,584.375 410.4063,584.375 Q411.1094,584.375 411.75,584.5313 Q412.4063,584.6875 412.9688,584.9844 L412.9688,587.7031 Q412.3438,587.125 411.75,586.8594 Q411.1563,586.5781 410.5313,586.5781 Q409.1875,586.5781 408.5,587.6563 Q407.8125,588.7188 407.8125,590.8125 Q407.8125,592.9063 408.5,593.9844 Q409.1875,595.0469 410.5313,595.0469 Q411.1563,595.0469 411.75,594.7813 Q412.3438,594.5 412.9688,593.9219 L412.9688,596.6406 Z " fill="#000000"/><text fill="#000000" font-family="sans-serif" font-size="14" lengthAdjust="spacing" textLength="165" x="424" y="595.8467">QuantoExchangeOption</text><line style="stroke:#181818;stroke-width:0.5;" x1="396" x2="591" y1="607" y2="607"/><ellipse cx="406" cy="620.6484" fill="none" rx="3" ry="3" style="stroke:#038048;stroke-width:1.0;"/><text fill="#000000" font-family="sans-serif" font-size="14" lengthAdjust="spacing" textLength="51" x="415" y="623.9951">strike K</text><line style="stroke:#181818;stroke-width:0.5;" x1="396" x2="591" y1="631.2969" y2="631.2969"/><ellipse cx="406" cy="644.9453" fill="#84BE84" rx="3" ry="3" style="stroke:#038048;stroke-width:1.0;"/><text fill="#000000" font-family="sans-serif" font-size="14" lengthAdjust="spacing" textLength="103" x="415" y="648.292">payoff() : doubl</text></g><!--class ForeignAsianOption--><g id="elem_ForeignAsianOption"><rect codeLine="63" fill="#F1F1F1" height="64.2969" id="ForeignAsianOption" rx="2.5" ry="2.5" style="stroke:#181818;stroke-width:0.5;" width="167" x="627" y="583.5"/><ellipse cx="642" cy="599.5" fill="#ADD1B2" rx="11" ry="11" style="stroke:#181818;stroke-width:1.0;"/><path d="M644.9688,605.1406 Q644.3906,605.4375 643.75,605.5781 Q643.1094,605.7344 642.4063,605.7344 Q639.9063,605.7344 638.5781,604.0938 Q637.2656,602.4375 637.2656,599.3125 Q637.2656,596.1875 638.5781,594.5313 Q639.9063,592.875 642.4063,592.875 Q643.1094,592.875 643.75,593.0313 Q644.4063,593.1875 644.9688,593.4844 L644.9688,596.2031 Q644.3438,595.625 643.75,595.3594 Q643.1563,595.0781 642.5313,595.0781 Q641.1875,595.0781 640.5,596.1563 Q639.8125,597.2188 639.8125,599.3125 Q639.8125,601.4063 640.5,602.4844 Q641.1875,603.5469 642.5313,603.5469 Q643.1563,603.5469 643.75,603.2813 Q644.3438,603 644.9688,602.4219 L644.9688,605.1406 Z " fill="#000000"/><text fill="#000000" font-family="sans-serif" font-size="14" lengthAdjust="spacing" textLength="135" x="656" y="604.3467">ForeignAsianOption</text><line style="stroke:#181818;stroke-width:0.5;" x1="628" x2="793" y1="615.5" y2="615.5"/><line style="stroke:#181818;stroke-width:0.5;" x1="628" x2="793" y1="623.5" y2="623.5"/><ellipse cx="638" cy="637.1484" fill="#84BE84" rx="3" ry="3" style="stroke:#038048;stroke-width:1.0;"/><text fill="#000000" font-family="sans-serif" font-size="14" lengthAdjust="spacing" textLength="103" x="647" y="640.4951">payoff() : doubl</text></g><!--class ForeignPerfBasketOption--><g id="elem_ForeignPerfBasketOption"><rect codeLine="68" fill="#F1F1F1" height="80.5938" id="ForeignPerfBasketOption" rx="2.5" ry="2.5" style="stroke:#181818;stroke-width:0.5;" width="205" x="829" y="575"/><ellipse cx="844" cy="591" fill="#ADD1B2" rx="11" ry="11" style="stroke:#181818;stroke-width:1.0;"/><path d="M846.9688,596.6406 Q846.3906,596.9375 845.75,597.0781 Q845.1094,597.2344 844.4063,597.2344 Q841.9063,597.2344 840.5781,595.5938 Q839.2656,593.9375 839.2656,590.8125 Q839.2656,587.6875 840.5781,586.0313 Q841.9063,584.375 844.4063,584.375 Q845.1094,584.375 845.75,584.5313 Q846.4063,584.6875 846.9688,584.9844 L846.9688,587.7031 Q846.3438,587.125 845.75,586.8594 Q845.1563,586.5781 844.5313,586.5781 Q843.1875,586.5781 842.5,587.6563 Q841.8125,588.7188 841.8125,590.8125 Q841.8125,592.9063 842.5,593.9844 Q843.1875,595.0469 844.5313,595.0469 Q845.1563,595.0469 845.75,594.7813 Q846.3438,594.5 846.9688,593.9219 L846.9688,596.6406 Z " fill="#000000"/><text fill="#000000" font-family="sans-serif" font-size="14" lengthAdjust="spacing" textLength="173" x="858" y="595.8467">ForeignPerfBasketOption</text><line style="stroke:#181818;stroke-width:0.5;" x1="830" x2="1033" y1="607" y2="607"/><ellipse cx="840" cy="620.6484" fill="none" rx="3" ry="3" style="stroke:#038048;stroke-width:1.0;"/><text fill="#000000" font-family="sans-serif" font-size="14" lengthAdjust="spacing" textLength="51" x="849" y="623.9951">strike K</text><line style="stroke:#181818;stroke-width:0.5;" x1="830" x2="1033" y1="631.2969" y2="631.2969"/><ellipse cx="840" cy="644.9453" fill="#84BE84" rx="3" ry="3" style="stroke:#038048;stroke-width:1.0;"/><text fill="#000000" font-family="sans-serif" font-size="14" lengthAdjust="spacing" textLength="103" x="849" y="648.292">payoff() : doubl</text></g><!--class GlobalModel--><g id="elem_GlobalModel"><rect codeLine="76" fill="#F1F1F1" height="129.4844" id="GlobalModel" rx="2.5" ry="2.5" style="stroke:#181818;stroke-width:0.5;" width="306" x="1213.5" y="370"/><ellipse cx="1319.75" cy="386" fill="#ADD1B2" rx="11" ry="11" style="stroke:#181818;stroke-width:1.0;"/><path d="M1322.7188,391.6406 Q1322.1406,391.9375 1321.5,392.0781 Q1320.8594,392.2344 1320.1563,392.2344 Q1317.6563,392.2344 1316.3281,390.5938 Q1315.0156,388.9375 1315.0156,385.8125 Q1315.0156,382.6875 1316.3281,381.0313 Q1317.6563,379.375 1320.1563,379.375 Q1320.8594,379.375 1321.5,379.5313 Q1322.1563,379.6875 1322.7188,379.9844 L1322.7188,382.7031 Q1322.0938,382.125 1321.5,381.8594 Q1320.9063,381.5781 1320.2813,381.5781 Q1318.9375,381.5781 1318.25,382.6563 Q1317.5625,383.7188 1317.5625,385.8125 Q1317.5625,387.9063 1318.25,388.9844 Q1318.9375,390.0469 1320.2813,390.0469 Q1320.9063,390.0469 1321.5,389.7813 Q1322.0938,389.5 1322.7188,388.9219 L1322.7188,391.6406 Z " fill="#000000"/><text fill="#000000" font-family="sans-serif" font-size="14" lengthAdjust="spacing" textLength="85" x="1340.25" y="390.8467">GlobalModel</text><line style="stroke:#181818;stroke-width:0.5;" x1="1214.5" x2="1518.5" y1="402" y2="402"/><ellipse cx="1224.5" cy="415.6484" fill="none" rx="3" ry="3" style="stroke:#038048;stroke-width:1.0;"/><text fill="#000000" font-family="sans-serif" font-size="14" lengthAdjust="spacing" textLength="200" x="1233.5" y="418.9951">vector&lt;RiskyAssets&gt; assets</text><ellipse cx="1224.5" cy="431.9453" fill="none" rx="3" ry="3" style="stroke:#038048;stroke-width:1.0;"/><text fill="#000000" font-family="sans-serif" font-size="14" lengthAdjust="spacing" textLength="206" x="1233.5" y="435.292">vector&lt;Currency&gt; currencies</text><ellipse cx="1224.5" cy="448.2422" fill="none" rx="3" ry="3" style="stroke:#038048;stroke-width:1.0;"/><text fill="#000000" font-family="sans-serif" font-size="14" lengthAdjust="spacing" textLength="205" x="1233.5" y="451.5889">ITimeGrid monitoringTimeGrid</text><ellipse cx="1224.5" cy="464.5391" fill="none" rx="3" ry="3" style="stroke:#038048;stroke-width:1.0;"/><text fill="#000000" font-family="sans-serif" font-size="14" lengthAdjust="spacing" textLength="280" x="1233.5" y="467.8857">InterestRateModel domesticInterestRate</text><ellipse cx="1224.5" cy="480.8359" fill="none" rx="3" ry="3" style="stroke:#038048;stroke-width:1.0;"/><text fill="#000000" font-family="sans-serif" font-size="14" lengthAdjust="spacing" textLength="148" x="1233.5" y="484.1826">pnl_mat* Correlations</text><line style="stroke:#181818;stroke-width:0.5;" x1="1214.5" x2="1518.5" y1="491.4844" y2="491.4844"/></g><!--class InterestRateModel--><g id="elem_InterestRateModel"><rect codeLine="85" fill="#F1F1F1" height="113.1875" id="InterestRateModel" rx="2.5" ry="2.5" style="stroke:#181818;stroke-width:0.5;" width="297" x="1379" y="559"/><ellipse cx="1459.75" cy="575" fill="#ADD1B2" rx="11" ry="11" style="stroke:#181818;stroke-width:1.0;"/><path d="M1462.7188,580.6406 Q1462.1406,580.9375 1461.5,581.0781 Q1460.8594,581.2344 1460.1563,581.2344 Q1457.6563,581.2344 1456.3281,579.5938 Q1455.0156,577.9375 1455.0156,574.8125 Q1455.0156,571.6875 1456.3281,570.0313 Q1457.6563,568.375 1460.1563,568.375 Q1460.8594,568.375 1461.5,568.5313 Q1462.1563,568.6875 1462.7188,568.9844 L1462.7188,571.7031 Q1462.0938,571.125 1461.5,570.8594 Q1460.9063,570.5781 1460.2813,570.5781 Q1458.9375,570.5781 1458.25,571.6563 Q1457.5625,572.7188 1457.5625,574.8125 Q1457.5625,576.9063 1458.25,577.9844 Q1458.9375,579.0469 1460.2813,579.0469 Q1460.9063,579.0469 1461.5,578.7813 Q1462.0938,578.5 1462.7188,577.9219 L1462.7188,580.6406 Z " fill="#000000"/><text fill="#000000" font-family="sans-serif" font-size="14" lengthAdjust="spacing" textLength="127" x="1480.25" y="579.8467">InterestRateModel</text><line style="stroke:#181818;stroke-width:0.5;" x1="1380" x2="1675" y1="591" y2="591"/><ellipse cx="1390" cy="604.6484" fill="none" rx="3" ry="3" style="stroke:#038048;stroke-width:1.0;"/><text fill="#000000" font-family="sans-serif" font-size="14" lengthAdjust="spacing" textLength="79" x="1399" y="607.9951">double rate</text><ellipse cx="1390" cy="620.9453" fill="none" rx="3" ry="3" style="stroke:#038048;stroke-width:1.0;"/><text fill="#000000" font-family="sans-serif" font-size="14" lengthAdjust="spacing" textLength="55" x="1399" y="624.292">string id</text><line style="stroke:#181818;stroke-width:0.5;" x1="1380" x2="1675" y1="631.5938" y2="631.5938"/><ellipse cx="1390" cy="645.2422" fill="#84BE84" rx="3" ry="3" style="stroke:#038048;stroke-width:1.0;"/><text fill="#000000" font-family="sans-serif" font-size="14" lengthAdjust="spacing" textLength="271" x="1399" y="648.5889">discount(double t1, double t2) : double</text><ellipse cx="1390" cy="661.5391" fill="#84BE84" rx="3" ry="3" style="stroke:#038048;stroke-width:1.0;"/><text fill="#000000" font-family="sans-serif" font-size="14" lengthAdjust="spacing" textLength="258" x="1399" y="664.8857">account(double t1, double t2) : doubl</text></g><!--class RiskyDynamics--><g id="elem_RiskyDynamics"><rect codeLine="97" fill="#F1F1F1" height="96.8906" id="RiskyDynamics" rx="2.5" ry="2.5" style="stroke:#181818;stroke-width:0.5;" width="187" x="1711" y="567"/><ellipse cx="1749.4" cy="583" fill="#ADD1B2" rx="11" ry="11" style="stroke:#181818;stroke-width:1.0;"/><path d="M1752.3688,588.6406 Q1751.7906,588.9375 1751.15,589.0781 Q1750.5094,589.2344 1749.8063,589.2344 Q1747.3063,589.2344 1745.9781,587.5938 Q1744.6656,585.9375 1744.6656,582.8125 Q1744.6656,579.6875 1745.9781,578.0313 Q1747.3063,576.375 1749.8063,576.375 Q1750.5094,576.375 1751.15,576.5313 Q1751.8063,576.6875 1752.3688,576.9844 L1752.3688,579.7031 Q1751.7438,579.125 1751.15,578.8594 Q1750.5563,578.5781 1749.9313,578.5781 Q1748.5875,578.5781 1747.9,579.6563 Q1747.2125,580.7188 1747.2125,582.8125 Q1747.2125,584.9063 1747.9,585.9844 Q1748.5875,587.0469 1749.9313,587.0469 Q1750.5563,587.0469 1751.15,586.7813 Q1751.7438,586.5 1752.3688,585.9219 L1752.3688,588.6406 Z " fill="#000000"/><text fill="#000000" font-family="sans-serif" font-size="14" lengthAdjust="spacing" textLength="103" x="1768.6" y="587.8467">RiskyDynamics</text><line style="stroke:#181818;stroke-width:0.5;" x1="1712" x2="1897" y1="599" y2="599"/><ellipse cx="1722" cy="612.6484" fill="none" rx="3" ry="3" style="stroke:#038048;stroke-width:1.0;"/><text fill="#000000" font-family="sans-serif" font-size="14" lengthAdjust="spacing" textLength="78" x="1731" y="615.9951">double drift</text><ellipse cx="1722" cy="628.9453" fill="none" rx="3" ry="3" style="stroke:#038048;stroke-width:1.0;"/><text fill="#000000" font-family="sans-serif" font-size="14" lengthAdjust="spacing" textLength="161" x="1731" y="632.292">PnlVect *volatilityVector</text><line style="stroke:#181818;stroke-width:0.5;" x1="1712" x2="1897" y1="639.5938" y2="639.5938"/><ellipse cx="1722" cy="653.2422" fill="#84BE84" rx="3" ry="3" style="stroke:#038048;stroke-width:1.0;"/><text fill="#000000" font-family="sans-serif" font-size="14" lengthAdjust="spacing" textLength="124" x="1731" y="656.5889">sampleNextDate()</text></g><!--class RiskyAsset--><g id="elem_RiskyAsset"><rect codeLine="104" fill="#F1F1F1" height="64.2969" id="RiskyAsset" rx="2.5" ry="2.5" style="stroke:#181818;stroke-width:0.5;" width="306" x="1480.5" y="740.5"/><ellipse cx="1591.75" cy="756.5" fill="#ADD1B2" rx="11" ry="11" style="stroke:#181818;stroke-width:1.0;"/><path d="M1594.7188,762.1406 Q1594.1406,762.4375 1593.5,762.5781 Q1592.8594,762.7344 1592.1563,762.7344 Q1589.6563,762.7344 1588.3281,761.0938 Q1587.0156,759.4375 1587.0156,756.3125 Q1587.0156,753.1875 1588.3281,751.5313 Q1589.6563,749.875 1592.1563,749.875 Q1592.8594,749.875 1593.5,750.0313 Q1594.1563,750.1875 1594.7188,750.4844 L1594.7188,753.2031 Q1594.0938,752.625 1593.5,752.3594 Q1592.9063,752.0781 1592.2813,752.0781 Q1590.9375,752.0781 1590.25,753.1563 Q1589.5625,754.2188 1589.5625,756.3125 Q1589.5625,758.4063 1590.25,759.4844 Q1590.9375,760.5469 1592.2813,760.5469 Q1592.9063,760.5469 1593.5,760.2813 Q1594.0938,760 1594.7188,759.4219 L1594.7188,762.1406 Z " fill="#000000"/><text fill="#000000" font-family="sans-serif" font-size="14" lengthAdjust="spacing" textLength="75" x="1612.25" y="761.3467">RiskyAsset</text><line style="stroke:#181818;stroke-width:0.5;" x1="1481.5" x2="1785.5" y1="772.5" y2="772.5"/><ellipse cx="1491.5" cy="786.1484" fill="none" rx="3" ry="3" style="stroke:#038048;stroke-width:1.0;"/><text fill="#000000" font-family="sans-serif" font-size="14" lengthAdjust="spacing" textLength="280" x="1500.5" y="789.4951">InterestRateModel domesticInterestRate</text><line style="stroke:#181818;stroke-width:0.5;" x1="1481.5" x2="1785.5" y1="796.7969" y2="796.7969"/></g><!--class Currency--><g id="elem_Currency"><rect codeLine="109" fill="#F1F1F1" height="80.5938" id="Currency" rx="2.5" ry="2.5" style="stroke:#181818;stroke-width:0.5;" width="306" x="1821.5" y="732"/><ellipse cx="1939.25" cy="748" fill="#ADD1B2" rx="11" ry="11" style="stroke:#181818;stroke-width:1.0;"/><path d="M1942.2188,753.6406 Q1941.6406,753.9375 1941,754.0781 Q1940.3594,754.2344 1939.6563,754.2344 Q1937.1563,754.2344 1935.8281,752.5938 Q1934.5156,750.9375 1934.5156,747.8125 Q1934.5156,744.6875 1935.8281,743.0313 Q1937.1563,741.375 1939.6563,741.375 Q1940.3594,741.375 1941,741.5313 Q1941.6563,741.6875 1942.2188,741.9844 L1942.2188,744.7031 Q1941.5938,744.125 1941,743.8594 Q1940.4063,743.5781 1939.7813,743.5781 Q1938.4375,743.5781 1937.75,744.6563 Q1937.0625,745.7188 1937.0625,747.8125 Q1937.0625,749.9063 1937.75,750.9844 Q1938.4375,752.0469 1939.7813,752.0469 Q1940.4063,752.0469 1941,751.7813 Q1941.5938,751.5 1942.2188,750.9219 L1942.2188,753.6406 Z " fill="#000000"/><text fill="#000000" font-family="sans-serif" font-size="14" lengthAdjust="spacing" textLength="62" x="1959.75" y="752.8467">Currency</text><line style="stroke:#181818;stroke-width:0.5;" x1="1822.5" x2="2126.5" y1="764" y2="764"/><ellipse cx="1832.5" cy="777.6484" fill="none" rx="3" ry="3" style="stroke:#038048;stroke-width:1.0;"/><text fill="#000000" font-family="sans-serif" font-size="14" lengthAdjust="spacing" textLength="280" x="1841.5" y="780.9951">InterestRateModel domesticInterestRate</text><ellipse cx="1832.5" cy="793.9453" fill="none" rx="3" ry="3" style="stroke:#038048;stroke-width:1.0;"/><text fill="#000000" font-family="sans-serif" font-size="14" lengthAdjust="spacing" textLength="264" x="1841.5" y="797.292">InterestRateModel foreignInterestRate</text><line style="stroke:#181818;stroke-width:0.5;" x1="1822.5" x2="2126.5" y1="804.5938" y2="804.5938"/></g><!--class ITimeGrid--><g id="elem_ITimeGrid"><rect codeLine="121" fill="#F1F1F1" height="113.1875" id="ITimeGrid" rx="2.5" ry="2.5" style="stroke:#181818;stroke-width:0.5;" width="275" x="1069" y="559"/><ellipse cx="1169.75" cy="575" fill="#ADD1B2" rx="11" ry="11" style="stroke:#181818;stroke-width:1.0;"/><path d="M1172.7188,580.6406 Q1172.1406,580.9375 1171.5,581.0781 Q1170.8594,581.2344 1170.1563,581.2344 Q1167.6563,581.2344 1166.3281,579.5938 Q1165.0156,577.9375 1165.0156,574.8125 Q1165.0156,571.6875 1166.3281,570.0313 Q1167.6563,568.375 1170.1563,568.375 Q1170.8594,568.375 1171.5,568.5313 Q1172.1563,568.6875 1172.7188,568.9844 L1172.7188,571.7031 Q1172.0938,571.125 1171.5,570.8594 Q1170.9063,570.5781 1170.2813,570.5781 Q1168.9375,570.5781 1168.25,571.6563 Q1167.5625,572.7188 1167.5625,574.8125 Q1167.5625,576.9063 1168.25,577.9844 Q1168.9375,579.0469 1170.2813,579.0469 Q1170.9063,579.0469 1171.5,578.7813 Q1172.0938,578.5 1172.7188,577.9219 L1172.7188,580.6406 Z " fill="#000000"/><text fill="#000000" font-family="sans-serif" font-size="14" lengthAdjust="spacing" textLength="65" x="1190.25" y="579.8467">ITimeGrid</text><line style="stroke:#181818;stroke-width:0.5;" x1="1070" x2="1343" y1="591" y2="591"/><line style="stroke:#181818;stroke-width:0.5;" x1="1070" x2="1343" y1="599" y2="599"/><ellipse cx="1080" cy="612.6484" fill="#84BE84" rx="3" ry="3" style="stroke:#038048;stroke-width:1.0;"/><text fill="#000000" font-family="sans-serif" font-size="14" lengthAdjust="spacing" textLength="249" x="1089" y="615.9951">ITimeGrid createTimeGridFromJson()</text><ellipse cx="1080" cy="628.9453" fill="#84BE84" rx="3" ry="3" style="stroke:#038048;stroke-width:1.0;"/><text fill="#000000" font-family="sans-serif" font-size="14" lengthAdjust="spacing" textLength="111" x="1089" y="632.292">at(int index) : int</text><ellipse cx="1080" cy="645.2422" fill="#84BE84" rx="3" ry="3" style="stroke:#038048;stroke-width:1.0;"/><text fill="#000000" font-family="sans-serif" font-size="14" lengthAdjust="spacing" textLength="61" x="1089" y="648.5889">len() : int</text><ellipse cx="1080" cy="661.5391" fill="#84BE84" rx="3" ry="3" style="stroke:#038048;stroke-width:1.0;"/><text fill="#000000" font-family="sans-serif" font-size="14" lengthAdjust="spacing" textLength="142" x="1089" y="664.8857">has(int nDays) : bool</text></g><!--class GridTimeGrid--><g id="elem_GridTimeGrid"><rect codeLine="130" fill="#F1F1F1" height="64.2969" id="GridTimeGrid" rx="2.5" ry="2.5" style="stroke:#181818;stroke-width:0.5;" width="144" x="964.5" y="740.5"/><ellipse cx="989.4" cy="756.5" fill="#ADD1B2" rx="11" ry="11" style="stroke:#181818;stroke-width:1.0;"/><path d="M992.3688,762.1406 Q991.7906,762.4375 991.15,762.5781 Q990.5094,762.7344 989.8063,762.7344 Q987.3063,762.7344 985.9781,761.0938 Q984.6656,759.4375 984.6656,756.3125 Q984.6656,753.1875 985.9781,751.5313 Q987.3063,749.875 989.8063,749.875 Q990.5094,749.875 991.15,750.0313 Q991.8063,750.1875 992.3688,750.4844 L992.3688,753.2031 Q991.7438,752.625 991.15,752.3594 Q990.5563,752.0781 989.9313,752.0781 Q988.5875,752.0781 987.9,753.1563 Q987.2125,754.2188 987.2125,756.3125 Q987.2125,758.4063 987.9,759.4844 Q988.5875,760.5469 989.9313,760.5469 Q990.5563,760.5469 991.15,760.2813 Q991.7438,760 992.3688,759.4219 L992.3688,762.1406 Z " fill="#000000"/><text fill="#000000" font-family="sans-serif" font-size="14" lengthAdjust="spacing" textLength="90" x="1005.6" y="761.3467">GridTimeGrid</text><line style="stroke:#181818;stroke-width:0.5;" x1="965.5" x2="1107.5" y1="772.5" y2="772.5"/><ellipse cx="975.5" cy="786.1484" fill="none" rx="3" ry="3" style="stroke:#038048;stroke-width:1.0;"/><text fill="#000000" font-family="sans-serif" font-size="14" lengthAdjust="spacing" textLength="118" x="984.5" y="789.4951">int[] DatesInDays</text><line style="stroke:#181818;stroke-width:0.5;" x1="965.5" x2="1107.5" y1="796.7969" y2="796.7969"/></g><!--class FixedTimeGrid--><g id="elem_FixedTimeGrid"><rect codeLine="134" fill="#F1F1F1" height="80.5938" id="FixedTimeGrid" rx="2.5" ry="2.5" style="stroke:#181818;stroke-width:0.5;" width="130" x="1143.5" y="732"/><ellipse cx="1158.5" cy="748" fill="#ADD1B2" rx="11" ry="11" style="stroke:#181818;stroke-width:1.0;"/><path d="M1161.4688,753.6406 Q1160.8906,753.9375 1160.25,754.0781 Q1159.6094,754.2344 1158.9063,754.2344 Q1156.4063,754.2344 1155.0781,752.5938 Q1153.7656,750.9375 1153.7656,747.8125 Q1153.7656,744.6875 1155.0781,743.0313 Q1156.4063,741.375 1158.9063,741.375 Q1159.6094,741.375 1160.25,741.5313 Q1160.9063,741.6875 1161.4688,741.9844 L1161.4688,744.7031 Q1160.8438,744.125 1160.25,743.8594 Q1159.6563,743.5781 1159.0313,743.5781 Q1157.6875,743.5781 1157,744.6563 Q1156.3125,745.7188 1156.3125,747.8125 Q1156.3125,749.9063 1157,750.9844 Q1157.6875,752.0469 1159.0313,752.0469 Q1159.6563,752.0469 1160.25,751.7813 Q1160.8438,751.5 1161.4688,750.9219 L1161.4688,753.6406 Z " fill="#000000"/><text fill="#000000" font-family="sans-serif" font-size="14" lengthAdjust="spacing" textLength="98" x="1172.5" y="752.8467">FixedTimeGrid</text><line style="stroke:#181818;stroke-width:0.5;" x1="1144.5" x2="1272.5" y1="764" y2="764"/><ellipse cx="1154.5" cy="777.6484" fill="none" rx="3" ry="3" style="stroke:#038048;stroke-width:1.0;"/><text fill="#000000" font-family="sans-serif" font-size="14" lengthAdjust="spacing" textLength="74" x="1163.5" y="780.9951">int periode</text><ellipse cx="1154.5" cy="793.9453" fill="none" rx="3" ry="3" style="stroke:#038048;stroke-width:1.0;"/><text fill="#000000" font-family="sans-serif" font-size="14" lengthAdjust="spacing" textLength="61" x="1163.5" y="797.292">int count</text><line style="stroke:#181818;stroke-width:0.5;" x1="1144.5" x2="1272.5" y1="804.5938" y2="804.5938"/></g><!--class RebalacingOracle--><g id="elem_RebalacingOracle"><rect codeLine="140" fill="#F1F1F1" height="64.2969" id="RebalacingOracle" rx="2.5" ry="2.5" style="stroke:#181818;stroke-width:0.5;" width="268" x="1711.5" y="205"/><ellipse cx="1781.25" cy="221" fill="#A9DCDF" rx="11" ry="11" style="stroke:#181818;stroke-width:1.0;"/><path d="M1781.3594,216.3438 L1780.2031,221.4219 L1782.5313,221.4219 L1781.3594,216.3438 Z M1779.875,214.1094 L1782.8594,214.1094 L1786.2188,226.5 L1783.7656,226.5 L1783,223.4375 L1779.7188,223.4375 L1778.9688,226.5 L1776.5313,226.5 L1779.875,214.1094 Z " fill="#000000"/><text fill="#000000" font-family="sans-serif" font-size="14" font-style="italic" lengthAdjust="spacing" textLength="120" x="1801.75" y="225.8467">RebalacingOracle</text><line style="stroke:#181818;stroke-width:0.5;" x1="1712.5" x2="1978.5" y1="237" y2="237"/><line style="stroke:#181818;stroke-width:0.5;" x1="1712.5" x2="1978.5" y1="245" y2="245"/><ellipse cx="1722.5" cy="258.6484" fill="#84BE84" rx="3" ry="3" style="stroke:#038048;stroke-width:1.0;"/><text fill="#000000" font-family="sans-serif" font-size="14" lengthAdjust="spacing" textLength="242" x="1731.5" y="261.9951">bool IsRebalancing(DateTime date)</text></g><!--class FixedRebalacing--><g id="elem_FixedRebalacing"><rect codeLine="144" fill="#F1F1F1" height="96.8906" id="FixedRebalacing" rx="2.5" ry="2.5" style="stroke:#181818;stroke-width:0.5;" width="328" x="1639.5" y="386"/><ellipse cx="1743.25" cy="402" fill="#ADD1B2" rx="11" ry="11" style="stroke:#181818;stroke-width:1.0;"/><path d="M1746.2188,407.6406 Q1745.6406,407.9375 1745,408.0781 Q1744.3594,408.2344 1743.6563,408.2344 Q1741.1563,408.2344 1739.8281,406.5938 Q1738.5156,404.9375 1738.5156,401.8125 Q1738.5156,398.6875 1739.8281,397.0313 Q1741.1563,395.375 1743.6563,395.375 Q1744.3594,395.375 1745,395.5313 Q1745.6563,395.6875 1746.2188,395.9844 L1746.2188,398.7031 Q1745.5938,398.125 1745,397.8594 Q1744.4063,397.5781 1743.7813,397.5781 Q1742.4375,397.5781 1741.75,398.6563 Q1741.0625,399.7188 1741.0625,401.8125 Q1741.0625,403.9063 1741.75,404.9844 Q1742.4375,406.0469 1743.7813,406.0469 Q1744.4063,406.0469 1745,405.7813 Q1745.5938,405.5 1746.2188,404.9219 L1746.2188,407.6406 Z " fill="#000000"/><text fill="#000000" font-family="sans-serif" font-size="14" lengthAdjust="spacing" textLength="112" x="1763.75" y="406.8467">FixedRebalacing</text><line style="stroke:#181818;stroke-width:0.5;" x1="1640.5" x2="1966.5" y1="418" y2="418"/><rect fill="none" height="6" style="stroke:#C82930;stroke-width:1.0;" width="6" x="1647.5" y="428.6484"/><text fill="#000000" font-family="sans-serif" font-size="14" lengthAdjust="spacing" textLength="63" x="1659.5" y="434.9951">int Count</text><rect fill="none" height="6" style="stroke:#C82930;stroke-width:1.0;" width="6" x="1647.5" y="444.9453"/><text fill="#000000" font-family="sans-serif" font-size="14" lengthAdjust="spacing" textLength="74" x="1659.5" y="451.292">int Periode</text><line style="stroke:#181818;stroke-width:0.5;" x1="1640.5" x2="1966.5" y1="458.5938" y2="458.5938"/><ellipse cx="1650.5" cy="472.2422" fill="#84BE84" rx="3" ry="3" style="stroke:#038048;stroke-width:1.0;"/><text fill="#000000" font-family="sans-serif" font-size="14" lengthAdjust="spacing" textLength="302" x="1659.5" y="475.5889">override bool IsRebalancing(DateTime date)</text></g><!--class GridRebalacing--><g id="elem_GridRebalacing"><rect codeLine="150" fill="#F1F1F1" height="80.5938" id="GridRebalacing" rx="2.5" ry="2.5" style="stroke:#181818;stroke-width:0.5;" width="328" x="2002.5" y="394"/><ellipse cx="2110.25" cy="410" fill="#ADD1B2" rx="11" ry="11" style="stroke:#181818;stroke-width:1.0;"/><path d="M2113.2188,415.6406 Q2112.6406,415.9375 2112,416.0781 Q2111.3594,416.2344 2110.6563,416.2344 Q2108.1563,416.2344 2106.8281,414.5938 Q2105.5156,412.9375 2105.5156,409.8125 Q2105.5156,406.6875 2106.8281,405.0313 Q2108.1563,403.375 2110.6563,403.375 Q2111.3594,403.375 2112,403.5313 Q2112.6563,403.6875 2113.2188,403.9844 L2113.2188,406.7031 Q2112.5938,406.125 2112,405.8594 Q2111.4063,405.5781 2110.7813,405.5781 Q2109.4375,405.5781 2108.75,406.6563 Q2108.0625,407.7188 2108.0625,409.8125 Q2108.0625,411.9063 2108.75,412.9844 Q2109.4375,414.0469 2110.7813,414.0469 Q2111.4063,414.0469 2112,413.7813 Q2112.5938,413.5 2113.2188,412.9219 L2113.2188,415.6406 Z " fill="#000000"/><text fill="#000000" font-family="sans-serif" font-size="14" lengthAdjust="spacing" textLength="104" x="2130.75" y="414.8467">GridRebalacing</text><line style="stroke:#181818;stroke-width:0.5;" x1="2003.5" x2="2329.5" y1="426" y2="426"/><ellipse cx="2013.5" cy="439.6484" fill="none" rx="3" ry="3" style="stroke:#038048;stroke-width:1.0;"/><text fill="#000000" font-family="sans-serif" font-size="14" lengthAdjust="spacing" textLength="108" x="2022.5" y="442.9951">int DatesInDays</text><line style="stroke:#181818;stroke-width:0.5;" x1="2003.5" x2="2329.5" y1="450.2969" y2="450.2969"/><ellipse cx="2013.5" cy="463.9453" fill="#84BE84" rx="3" ry="3" style="stroke:#038048;stroke-width:1.0;"/><text fill="#000000" font-family="sans-serif" font-size="14" lengthAdjust="spacing" textLength="302" x="2022.5" y="467.292">override bool IsRebalancing(DateTime date)</text></g><!--reverse link Portfolio to MonteCarlo--><g id="link_Portfolio_MonteCarlo"><path codeLine="157" d="M1506.0812,110.9133 C1475.6112,131.7933 1449.29,149.82 1416.55,172.25 " fill="none" id="Portfolio-backto-MonteCarlo" style="stroke:#181818;stroke-width:1.0;"/><polygon fill="none" points="1515.98,104.13,1508.7695,104.222,1506.0812,110.9133,1513.2917,110.8213,1515.98,104.13" style="stroke:#181818;stroke-width:1.0;"/></g><!--reverse link Portfolio to Position--><g id="link_Portfolio_Position"><path codeLine="158" d="M1585.5,116.13 C1585.5,134.41 1585.5,143.71 1585.5,163.78 " fill="none" id="Portfolio-backto-Position" style="stroke:#181818;stroke-width:1.0;"/><polygon fill="none" points="1585.5,104.13,1581.5,110.13,1585.5,116.13,1589.5,110.13,1585.5,104.13" style="stroke:#181818;stroke-width:1.0;"/></g><!--reverse link Portfolio to RebalacingOracle--><g id="link_Portfolio_RebalacingOracle"><path codeLine="159" d="M1664.3651,110.9478 C1710.5551,142.8378 1760.15,177.08 1800.37,204.84 " fill="none" id="Portfolio-backto-RebalacingOracle" style="stroke:#181818;stroke-width:1.0;"/><polygon fill="none" points="1654.49,104.13,1657.1549,110.8306,1664.3651,110.9478,1661.7001,104.2472,1654.49,104.13" style="stroke:#181818;stroke-width:1.0;"/></g><!--reverse link MonteCarlo to Option--><g id="link_MonteCarlo_Option"><path codeLine="161" d="M1176.027,285.0351 C1089.427,312.6451 987.65,345.11 893.26,375.21 " fill="none" id="MonteCarlo-backto-Option" style="stroke:#181818;stroke-width:1.0;"/><polygon fill="none" points="1187.46,281.39,1180.5285,279.4015,1176.027,285.0351,1182.9585,287.0235,1187.46,281.39" style="stroke:#181818;stroke-width:1.0;"/></g><!--reverse link MonteCarlo to GlobalModel--><g id="link_MonteCarlo_GlobalModel"><path codeLine="162" d="M1340.0959,313.4603 C1344.8959,335.3003 1347.7,348.01 1352.5,369.84 " fill="none" id="MonteCarlo-backto-GlobalModel" style="stroke:#181818;stroke-width:1.0;"/><polygon fill="none" points="1337.52,301.74,1334.9012,308.4588,1340.0959,313.4603,1342.7147,306.7415,1337.52,301.74" style="stroke:#181818;stroke-width:1.0;"/></g><!--reverse link Option to CallQuantoOption--><g id="link_Option_CallQuantoOption"><path codeLine="164" d="M521.842,464.6617 C416.962,484.2517 290.06,513.98 177.5,559 C166.41,563.43 155.09,569.05 144.32,574.99 " fill="none" id="Option-backto-CallQuantoOption" style="stroke:#181818;stroke-width:1.0;"/><polygon fill="#181818" points="527.74,463.56,518.1586,461.2805,522.825,464.478,519.6274,469.1445,527.74,463.56" style="stroke:#181818;stroke-width:1.0;"/></g><!--reverse link Option to CallCurrencyOption--><g id="link_Option_CallCurrencyOption"><path codeLine="165" d="M522.2342,499.6559 C472.8242,517.9759 425.4,536.98 377.5,559 C367.04,563.81 356.18,569.29 345.65,574.89 " fill="none" id="Option-backto-CallCurrencyOption" style="stroke:#181818;stroke-width:1.0;"/><polygon fill="#181818" points="527.86,497.57,518.0308,496.9483,523.1719,499.3082,520.812,504.4493,527.86,497.57" style="stroke:#181818;stroke-width:1.0;"/></g><!--reverse link Option to QuantoExchangeOption--><g id="link_Option_QuantoExchangeOption"><path codeLine="166" d="M628.7525,502.9292 C598.1825,528.1592 568.59,552.56 541.65,574.78 " fill="none" id="Option-backto-QuantoExchangeOption" style="stroke:#181818;stroke-width:1.0;"/><polygon fill="#181818" points="633.38,499.11,623.8926,501.7538,629.5237,502.2926,628.9848,507.9238,633.38,499.11" style="stroke:#181818;stroke-width:1.0;"/></g><!--reverse link Option to ForeignAsianOption--><g id="link_Option_ForeignAsianOption"><path codeLine="167" d="M710.5,505.11 C710.5,533.65 710.5,560.03 710.5,583.21 " fill="none" id="Option-backto-ForeignAsianOption" style="stroke:#181818;stroke-width:1.0;"/><polygon fill="#181818" points="710.5,499.11,706.5,508.11,710.5,504.11,714.5,508.11,710.5,499.11" style="stroke:#181818;stroke-width:1.0;"/></g><!--reverse link Option to ForeignPerfBasketOption--><g id="link_Option_ForeignPerfBasketOption"><path codeLine="168" d="M793.7019,502.8871 C824.8419,528.1171 855.03,552.56 882.46,574.78 " fill="none" id="Option-backto-ForeignPerfBasketOption" style="stroke:#181818;stroke-width:1.0;"/><polygon fill="#181818" points="789.04,499.11,793.5148,507.8836,792.9249,502.2576,798.5509,501.6678,789.04,499.11" style="stroke:#181818;stroke-width:1.0;"/></g><!--link Option to ITimeGrid--><g id="link_Option_ITimeGrid"><path codeLine="169" d="M886.77,499.11 C946.63,520.72 1012.6,544.52 1068.99,564.87 " fill="none" id="Option-ITimeGrid" style="stroke:#181818;stroke-width:1.0;"/></g><!--reverse link RebalacingOracle to FixedRebalacing--><g id="link_RebalacingOracle_FixedRebalacing"><path codeLine="171" d="M1834.9681,287.0082 C1828.2181,318.4182 1821.54,349.53 1813.76,385.73 " fill="none" id="RebalacingOracle-backto-FixedRebalacing" style="stroke:#181818;stroke-width:1.0;"/><polygon fill="none" points="1838.75,269.41,1829.1021,285.7476,1840.8342,288.2688,1838.75,269.41" style="stroke:#181818;stroke-width:1.0;"/></g><!--reverse link RebalacingOracle to GridRebalacing--><g id="link_RebalacingOracle_GridRebalacing"><path codeLine="172" d="M1912.0933,278.5528 C1967.6733,312.4028 2041.17,357.17 2101.6,393.98 " fill="none" id="RebalacingOracle-backto-GridRebalacing" style="stroke:#181818;stroke-width:1.0;"/><polygon fill="none" points="1896.72,269.19,1908.9723,283.6772,1915.2142,273.4284,1896.72,269.19" style="stroke:#181818;stroke-width:1.0;"/></g><!--reverse link ITimeGrid to GridTimeGrid--><g id="link_ITimeGrid_GridTimeGrid"><path codeLine="175" d="M1132.3062,684.1447 C1107.1462,707.0747 1092.23,720.69 1070.79,740.23 " fill="none" id="ITimeGrid-backto-GridTimeGrid" style="stroke:#181818;stroke-width:1.0;"/><polygon fill="none" points="1145.61,672.02,1128.2646,679.7101,1136.3477,688.5793,1145.61,672.02" style="stroke:#181818;stroke-width:1.0;"/></g><!--reverse link ITimeGrid to FixedTimeGrid--><g id="link_ITimeGrid_FixedTimeGrid"><path codeLine="176" d="M1207.4471,690.0186 C1207.6971,709.8286 1207.75,713.72 1207.99,731.91 " fill="none" id="ITimeGrid-backto-FixedTimeGrid" style="stroke:#181818;stroke-width:1.0;"/><polygon fill="none" points="1207.22,672.02,1201.4476,690.0943,1213.4467,689.9429,1207.22,672.02" style="stroke:#181818;stroke-width:1.0;"/></g><!--reverse link GlobalModel to InterestRateModel--><g id="link_GlobalModel_InterestRateModel"><path codeLine="179" d="M1435.7538,512.4961 C1453.2838,531.9961 1460.4,539.89 1477.42,558.82 " fill="none" id="GlobalModel-backto-InterestRateModel" style="stroke:#181818;stroke-width:1.0;"/><polygon fill="none" points="1423.72,499.11,1431.2917,516.5074,1440.2158,508.4849,1423.72,499.11" style="stroke:#181818;stroke-width:1.0;"/></g><!--link GlobalModel to ITimeGrid--><g id="link_GlobalModel_ITimeGrid"><path codeLine="180" d="M1309.64,499.11 C1292.21,518.61 1273.19,539.89 1256.27,558.82 " fill="none" id="GlobalModel-ITimeGrid" style="stroke:#181818;stroke-width:1.0;"/></g><!--reverse link GlobalModel to RiskyDynamics--><g id="link_GlobalModel_RiskyDynamics"><path codeLine="181" d="M1536.4953,495.893 C1591.7853,516.413 1637.49,534.5 1693.5,559 C1699.22,561.5 1705.08,564.15 1710.95,566.88 " fill="none" id="GlobalModel-backto-RiskyDynamics" style="stroke:#181818;stroke-width:1.0;"/><polygon fill="none" points="1519.62,489.63,1534.4076,501.5181,1538.5829,490.2679,1519.62,489.63" style="stroke:#181818;stroke-width:1.0;"/></g><!--reverse link RiskyDynamics to RiskyAsset--><g id="link_RiskyDynamics_RiskyAsset"><path codeLine="182" d="M1738.4641,676.3594 C1711.1841,701.0894 1691.99,718.49 1667.95,740.27 " fill="none" id="RiskyDynamics-backto-RiskyAsset" style="stroke:#181818;stroke-width:1.0;"/><polygon fill="none" points="1751.8,664.27,1734.4343,671.914,1742.4938,680.8047,1751.8,664.27" style="stroke:#181818;stroke-width:1.0;"/></g><!--reverse link RiskyDynamics to Currency--><g id="link_RiskyDynamics_Currency"><path codeLine="183" d="M1870.1937,676.3948 C1894.0037,698.0948 1908.52,711.34 1931.13,731.96 " fill="none" id="RiskyDynamics-backto-Currency" style="stroke:#181818;stroke-width:1.0;"/><polygon fill="none" points="1856.89,664.27,1866.1521,680.8294,1874.2353,671.9602,1856.89,664.27" style="stroke:#181818;stroke-width:1.0;"/></g><!--SRC=[dLRTRzCm47_tN-77Rh07U4HJfT6ogQ2nig6z88JSvD9PS-t8TgjMW_-TyqSIEybWNH_I-BxlT-Ux588PGvTAsqe9hkWJeVZpZpVqMaaBCwQ5eflsDV8Mt_a6hZGlgOOL4qmMNAuRMfJPGM6LFbygmorNSahh-6R87-9-XVUUk7aYKVMcTdBqLFd_IBmI2brTgn841eJFIEVIqZksgGLyNKLIgROh0VGM1BDy1vTSSWjpNbMWGHPmPw6EahNc1Lp8SWx2iic9Zwo8g8He8oZ1JyainEDIYdlCa9wMJjMCK-yiMjxbKNcN8wHHsQOqzqni8Oak8jGYXi7z-4cH0tQsrIxBmpMhQwnANeq5Wgt1s5jCn4CvfPNImDSovJJP3AGnhWsUUP5o1Zs1xSBHsKXBS6stJD2Q7LHLJKxeXv0eIJARCI6-RPcqgiqnA1kh-IFGBqr_3epaDXeOZhNYp0Gh8OfF- -A1oJMynauqT1aGlZ2SoPwPVxYFMalGrKTc7i6-Ae9eBBqyRTF4dhZbvl5muLh7J4CBcLoWWN9AY_36kmxvVz6FQg9QYbyRPa_fJA4dTttZl0Xf36sroSGRev534uJacc9mZGmtXTfAEud2zjtRHi- -Ru5hOc752uH9DimybFE3P1jUc45ifUQLxG-AdN9P2cuFznxj9lOmqM1lvvXHc4o93r-kpi4BCMvjD1Kzsi9pmYD390BJOjErojEWUGeDgD4SBxNQV3PAOjQn4dRYfY-N9UmTydY8705oabCUcF72SiuEnh5MIcMtqNaOX1BcfuFQBBncSW_v7aOLQ0sQO_Oq8VcEeTuRMs7_CInnC8FRo6rAjoXla8pjqDfo4TA5kUrMwMGUuV0RvwGNJ6SfcZZplcV1TqTOvl6f7MXC0Oxnvt8Uk0kffc2znW4XtOU7EZjBFWHwZ7OJz-XzG0b9lYMSG1oOVN8o2mc9CkT8xs-UFY_VA2btR5Ea_E426E7s1tqZWXBjHI5aq4Ndlvs9l2sUaSgBYGNeBc3BRobzPduDK3bTALvYC1KoaIoDWMusE4a-HZi1F_N6k4rf2FaB]--></g></svg>